
        <svg xmlns="http://www.w3.org/2000/svg" xmlns:xlink="http://www.w3.org/1999/xlink" version="1.1" width="3220.8545487360643" 
        height="618.3927364609806" viewBox="0 0 3220.8545487360643 618.3927364609806">
			
			<g transform="scale(11.042727436803222) translate(10, 10)">
				<defs id="SvgjsDefs2882"></defs><g id="SvgjsG2883" featureKey="nameLeftFeature-0" transform="matrix(1.235500660614049,0,0,1.235500660614049,-0.7907203314774347,-14.12476218679746)" fill="#0dceda"><path d="M2.76 40 c-0.32 0 -0.64 -0.04 -0.96 -0.12 c-0.16 0 -0.32 -0.04 -0.48 -0.12 c-0.4 -0.16 -0.64 -0.48 -0.68 -0.96 c0 -0.2 0 -0.44 0.08 -0.68 c0.08 -0.4 0.2 -0.8 0.32 -1.2 c1.16 -3.4 2.28 -6.84 3.4 -10.28 c1 -2.96 1.96 -5.92 2.92 -8.88 c0.4 -1.16 0.76 -2.32 1.16 -3.48 c0.12 -0.36 0.24 -0.68 0.4 -1 c0.32 -0.76 0.92 -1.12 1.72 -1.24 c0.28 -0.04 0.56 -0.04 0.88 -0.04 l1.92 0 l3.76 0 c0.36 0 0.72 0.04 1.08 0.08 c0.68 0.08 1.2 0.44 1.52 1.04 c0.16 0.36 0.32 0.68 0.44 1.08 c0.44 1.2 0.8 2.44 1.2 3.64 c0.44 1.28 0.84 2.52 1.24 3.76 c0.88 2.72 1.8 5.4 2.68 8.08 c0.8 2.44 1.6 4.92 2.4 7.36 c0.12 0.32 0.2 0.68 0.28 1.04 c0.08 0.2 0.08 0.44 0.12 0.64 c0 0.48 -0.28 0.88 -0.72 1.04 c-0.36 0.16 -0.68 0.2 -1.04 0.2 c-0.44 0.04 -0.84 0.04 -1.28 0.04 l-0.76 0 l-1.56 0 c-0.32 -0.04 -0.68 -0.08 -1.04 -0.12 c-0.76 -0.12 -1.28 -0.56 -1.56 -1.28 c-0.12 -0.28 -0.24 -0.6 -0.32 -0.88 c-0.12 -0.36 -0.24 -0.68 -0.36 -1 c-0.36 -0.84 -0.96 -1.36 -1.88 -1.44 c-0.32 -0.04 -0.6 -0.04 -0.88 -0.04 l-4.64 0 c-0.44 0 -0.84 0 -1.24 0.08 c-0.68 0.12 -1.12 0.48 -1.44 1.04 c-0.24 0.4 -0.36 0.84 -0.52 1.28 c-0.08 0.32 -0.2 0.68 -0.32 1 c-0.12 0.24 -0.24 0.44 -0.44 0.64 c-0.24 0.28 -0.56 0.48 -0.96 0.56 c-0.4 0.12 -0.84 0.16 -1.24 0.16 l-3.2 0 z M14.28 29.64 c0.44 -0.04 0.8 -0.04 1.16 -0.04 c0.28 -0.04 0.56 -0.08 0.84 -0.2 c0.4 -0.2 0.68 -0.48 0.72 -0.96 c0.04 -0.4 -0.04 -0.84 -0.12 -1.24 l-0.48 -1.68 c-0.28 -0.96 -0.56 -1.88 -0.84 -2.84 c-0.08 -0.32 -0.2 -0.64 -0.32 -0.92 c-0.08 -0.16 -0.2 -0.32 -0.32 -0.48 c-0.36 -0.4 -0.76 -0.4 -1.08 0 c-0.12 0.2 -0.24 0.4 -0.32 0.6 c-0.16 0.32 -0.28 0.64 -0.36 1 c-0.4 1.4 -0.8 2.76 -1.2 4.16 c-0.04 0.24 -0.12 0.44 -0.12 0.68 c-0.04 0.2 -0.04 0.44 -0.04 0.64 c0 0.32 0.16 0.56 0.36 0.76 c0.28 0.28 0.6 0.4 0.96 0.44 c0.4 0.04 0.84 0.04 1.16 0.08 z M34.446600000000004 40 c-0.44 0 -0.84 -0.08 -1.28 -0.16 c-0.48 -0.16 -0.84 -0.48 -0.96 -0.96 c-0.08 -0.28 -0.12 -0.6 -0.16 -0.88 c-0.04 -0.36 0 -0.76 0 -1.16 l0 -10.92 l0 -10.72 c0 -0.44 -0.04 -0.84 0 -1.28 c0 -0.24 0.04 -0.52 0.12 -0.76 c0.16 -0.48 0.48 -0.84 0.96 -1 c0.28 -0.08 0.56 -0.12 0.84 -0.12 c0.4 -0.04 0.8 -0.04 1.16 -0.04 l2.32 0 c0.44 0 0.84 0.04 1.28 0.16 c0.52 0.16 0.88 0.52 1 1.08 c0.04 0.28 0.08 0.64 0.08 0.96 l0 2.6 l0 1.56 c0 0.48 0.08 0.96 0.16 1.4 c0.04 0.2 0.12 0.4 0.24 0.56 c0.16 0.32 0.6 0.4 0.92 0.2 c0.28 -0.2 0.48 -0.44 0.68 -0.68 l0.48 -0.72 c1.12 -1.64 2.2 -3.32 3.32 -5 c0.24 -0.36 0.52 -0.72 0.8 -1.08 c0.44 -0.6 1.08 -0.92 1.8 -1 c0.28 0 0.52 -0.04 0.8 -0.04 l3.56 0 c0.28 0 0.6 0.04 0.88 0.08 c0.2 0 0.44 0.12 0.6 0.24 c0.28 0.2 0.44 0.52 0.36 0.84 c-0.04 0.16 -0.08 0.32 -0.16 0.44 c-0.16 0.28 -0.32 0.52 -0.48 0.76 c-0.4 0.56 -0.84 1.12 -1.28 1.68 c-0.56 0.76 -1.12 1.52 -1.68 2.24 c-0.84 1.12 -1.68 2.2 -2.52 3.32 c-0.24 0.32 -0.48 0.68 -0.72 1.04 c-0.4 0.72 -0.4 1.48 -0.08 2.2 c0.12 0.24 0.24 0.48 0.4 0.68 c0.52 0.84 1.04 1.72 1.6 2.56 c0.84 1.32 1.72 2.64 2.56 3.96 c1.12 1.8 2.28 3.6 3.4 5.4 l0.48 0.84 c0.12 0.28 0.16 0.56 0.08 0.88 c-0.04 0.24 -0.2 0.44 -0.44 0.56 c-0.16 0.08 -0.32 0.12 -0.48 0.16 c-0.36 0.08 -0.76 0.12 -1.16 0.12 l-3.36 0 c-0.48 0 -0.96 -0.04 -1.44 -0.16 c-0.36 -0.12 -0.64 -0.28 -0.92 -0.52 c-0.36 -0.32 -0.64 -0.72 -0.88 -1.16 c-0.4 -0.8 -0.84 -1.6 -1.24 -2.4 c-0.68 -1.24 -1.36 -2.48 -2 -3.76 l-0.48 -0.84 c-0.12 -0.2 -0.32 -0.4 -0.52 -0.56 c-0.4 -0.36 -1.08 -0.32 -1.44 -0.04 c-0.84 0.72 -1.48 1.6 -1.68 2.72 c-0.12 0.56 -0.16 1.08 -0.16 1.64 l0 2.6 c0 0.32 -0.04 0.64 -0.04 0.96 c-0.08 0.76 -0.64 1.24 -1.2 1.36 c-0.36 0.08 -0.68 0.16 -1.04 0.16 l-3.08 0 z M82.05799999999999 40.56 c-1.64 -0.12 -3.2 -0.48 -4.64 -1.28 c-2.16 -1.16 -3.72 -2.84 -4.64 -5.12 c-0.2 -0.44 -0.36 -0.88 -0.52 -1.36 c-0.12 -0.28 -0.24 -0.6 -0.36 -0.88 c-0.28 -0.52 -0.72 -0.84 -1.32 -0.92 c-0.24 0 -0.52 -0.04 -0.76 0 c-0.72 0.08 -1.32 0.64 -1.44 1.36 c-0.04 0.2 -0.08 0.44 -0.08 0.68 l0 1.16 l0 3.28 c-0.04 0.44 -0.04 0.84 -0.16 1.24 c-0.04 0.16 -0.08 0.32 -0.16 0.48 c-0.16 0.32 -0.44 0.52 -0.8 0.64 c-0.4 0.12 -0.8 0.16 -1.24 0.16 l-3.2 0 c-0.36 0 -0.76 -0.04 -1.12 -0.16 c-0.56 -0.16 -0.92 -0.52 -1.04 -1.04 c-0.08 -0.44 -0.12 -0.84 -0.16 -1.24 l0 -1.08 l0 -10.56 l0 -10.64 c0 -0.56 0 -1.16 0.12 -1.72 c0.04 -0.2 0.04 -0.4 0.12 -0.56 c0.16 -0.44 0.44 -0.72 0.88 -0.84 c0.24 -0.08 0.52 -0.12 0.76 -0.12 c0.28 -0.04 0.52 -0.04 0.8 -0.04 l7.92 0 c1.28 0 2.56 0.16 3.84 0.4 c0.92 0.16 1.84 0.44 2.68 0.8 c0.44 0.16 0.84 0.36 1.24 0.56 c1.16 0.56 2.08 1.4 2.84 2.4 c0.76 0.96 1.16 2.04 1.36 3.2 c0.08 0.36 0.12 0.76 0.16 1.12 c0 0.24 0.04 0.48 0 0.68 c-0.08 1.08 -0.24 2.12 -0.56 3.16 c-0.4 1.12 -1.04 2.12 -1.92 2.96 c-0.4 0.4 -0.84 0.72 -1.24 1.08 c-0.16 0.16 -0.36 0.32 -0.52 0.48 c-0.6 0.6 -0.72 1.32 -0.44 2.12 c0.28 0.72 0.8 1.24 1.44 1.64 c0.64 0.36 1.28 0.6 2 0.8 c0.32 0.08 0.68 0.16 1.04 0.24 c0.92 0.2 1.32 0.76 1.4 1.68 c0.04 0.16 0.04 0.32 0.04 0.48 l0 2.64 c0 0.28 -0.04 0.56 -0.08 0.84 c-0.12 0.56 -0.48 0.92 -1 1.12 c-0.4 0.12 -0.84 0.2 -1.24 0.16 z M69.97800000000001 25.72 c0.96 0.04 1.88 -0.16 2.72 -0.6 c0.72 -0.4 1.28 -0.96 1.72 -1.64 c0.08 -0.2 0.16 -0.36 0.24 -0.56 c0.64 -1.96 -0.2 -4 -2.12 -4.8 c-0.36 -0.16 -0.76 -0.28 -1.16 -0.4 c-0.56 -0.12 -1.08 -0.16 -1.64 -0.08 c-0.68 0.08 -1.12 0.44 -1.32 1.12 c-0.08 0.28 -0.12 0.6 -0.12 0.96 l0 1.92 l0 1.92 c0 0.28 0 0.52 0.08 0.76 c0.12 0.68 0.68 1.4 1.6 1.4 z M88.32700000000001 40 c-0.32 0 -0.64 -0.04 -0.96 -0.12 c-0.16 0 -0.32 -0.04 -0.48 -0.12 c-0.4 -0.16 -0.64 -0.48 -0.68 -0.96 c0 -0.2 0 -0.44 0.08 -0.68 c0.08 -0.4 0.2 -0.8 0.32 -1.2 c1.16 -3.4 2.28 -6.84 3.4 -10.28 c1 -2.96 1.96 -5.92 2.92 -8.88 c0.4 -1.16 0.76 -2.32 1.16 -3.48 c0.12 -0.36 0.24 -0.68 0.4 -1 c0.32 -0.76 0.92 -1.12 1.72 -1.24 c0.28 -0.04 0.56 -0.04 0.88 -0.04 l1.92 0 l3.76 0 c0.36 0 0.72 0.04 1.08 0.08 c0.68 0.08 1.2 0.44 1.52 1.04 c0.16 0.36 0.32 0.68 0.44 1.08 c0.44 1.2 0.8 2.44 1.2 3.64 c0.44 1.28 0.84 2.52 1.24 3.76 c0.88 2.72 1.8 5.4 2.68 8.08 c0.8 2.44 1.6 4.92 2.4 7.36 c0.12 0.32 0.2 0.68 0.28 1.04 c0.08 0.2 0.08 0.44 0.12 0.64 c0 0.48 -0.28 0.88 -0.72 1.04 c-0.36 0.16 -0.68 0.2 -1.04 0.2 c-0.44 0.04 -0.84 0.04 -1.28 0.04 l-0.76 0 l-1.56 0 c-0.32 -0.04 -0.68 -0.08 -1.04 -0.12 c-0.76 -0.12 -1.28 -0.56 -1.56 -1.28 c-0.12 -0.28 -0.24 -0.6 -0.32 -0.88 c-0.12 -0.36 -0.24 -0.68 -0.36 -1 c-0.36 -0.84 -0.96 -1.36 -1.88 -1.44 c-0.32 -0.04 -0.6 -0.04 -0.88 -0.04 l-4.64 0 c-0.44 0 -0.84 0 -1.24 0.08 c-0.68 0.12 -1.12 0.48 -1.44 1.04 c-0.24 0.4 -0.36 0.84 -0.52 1.28 c-0.08 0.32 -0.2 0.68 -0.32 1 c-0.12 0.24 -0.24 0.44 -0.44 0.64 c-0.24 0.28 -0.56 0.48 -0.96 0.56 c-0.4 0.12 -0.84 0.16 -1.24 0.16 l-3.2 0 z M99.84700000000001 29.64 c0.44 -0.04 0.8 -0.04 1.16 -0.04 c0.28 -0.04 0.56 -0.08 0.84 -0.2 c0.4 -0.2 0.68 -0.48 0.72 -0.96 c0.04 -0.4 -0.04 -0.84 -0.12 -1.24 l-0.48 -1.68 c-0.28 -0.96 -0.56 -1.88 -0.84 -2.84 c-0.08 -0.32 -0.2 -0.64 -0.32 -0.92 c-0.08 -0.16 -0.2 -0.32 -0.32 -0.48 c-0.36 -0.4 -0.76 -0.4 -1.08 0 c-0.12 0.2 -0.24 0.4 -0.32 0.6 c-0.16 0.32 -0.28 0.64 -0.36 1 c-0.4 1.4 -0.8 2.76 -1.2 4.16 c-0.04 0.24 -0.12 0.44 -0.12 0.68 c-0.04 0.2 -0.04 0.44 -0.04 0.64 c0 0.32 0.16 0.56 0.36 0.76 c0.28 0.28 0.6 0.4 0.96 0.44 c0.4 0.04 0.84 0.04 1.16 0.08 z M119.63600000000001 39.96 c-0.32 -0.04 -0.64 -0.08 -0.96 -0.2 c-0.48 -0.12 -0.76 -0.44 -0.88 -0.92 c-0.08 -0.36 -0.12 -0.76 -0.16 -1.16 c-0.04 -0.24 -0.04 -0.52 -0.04 -0.76 l0 -22.04 c0 -0.28 0 -0.56 0.04 -0.88 c0 -0.28 0.08 -0.56 0.12 -0.84 c0.12 -0.52 0.48 -0.84 0.96 -1 l0.48 -0.12 c0.16 0 0.32 -0.04 0.48 -0.04 l5.2 0 c0.24 0 0.48 0.04 0.68 0.08 c0.6 0.12 1 0.44 1.28 0.96 c0.2 0.32 0.36 0.68 0.48 1.04 c0.28 0.88 0.56 1.8 0.84 2.68 c0.48 1.48 0.92 3 1.4 4.52 c0.32 0.96 0.6 1.96 0.92 2.96 c0.12 0.36 0.28 0.72 0.44 1.08 c0.08 0.24 0.24 0.44 0.48 0.6 c0.24 0.2 0.6 0.2 0.88 0 c0.16 -0.12 0.28 -0.28 0.36 -0.48 l0.24 -0.6 c0.28 -0.8 0.56 -1.6 0.8 -2.4 c0.64 -2.08 1.32 -4.16 1.96 -6.28 c0.2 -0.6 0.36 -1.2 0.56 -1.84 c0.12 -0.28 0.2 -0.6 0.32 -0.92 c0.12 -0.2 0.24 -0.4 0.36 -0.56 c0.36 -0.44 0.84 -0.72 1.4 -0.8 c0.2 0 0.4 -0.04 0.56 -0.04 l4.96 0 c0.28 0 0.56 0.04 0.84 0.12 c0.72 0.16 1.16 0.64 1.28 1.4 c0.04 0.2 0.04 0.44 0.04 0.64 l0 1.16 l0 10.64 l0 10.84 l0 1.24 c0 0.32 -0.04 0.6 -0.16 0.88 c-0.16 0.44 -0.48 0.76 -0.96 0.88 c-0.32 0.08 -0.68 0.16 -1.04 0.16 c-0.88 0.04 -1.8 0 -2.68 0 c-0.28 0 -0.6 -0.08 -0.88 -0.12 c-0.32 -0.04 -0.6 -0.24 -0.8 -0.48 c-0.2 -0.2 -0.32 -0.4 -0.36 -0.68 c-0.04 -0.2 -0.08 -0.44 -0.08 -0.64 l0 -1.16 l0 -5.72 c0 -0.88 -0.12 -1.72 -0.2 -2.6 c-0.04 -0.24 -0.08 -0.52 -0.2 -0.72 c-0.2 -0.28 -0.44 -0.32 -0.68 -0.12 c-0.08 0.08 -0.2 0.16 -0.28 0.28 c-0.04 0.08 -0.12 0.2 -0.16 0.32 c-0.24 0.56 -0.48 1.12 -0.68 1.72 c-0.32 0.92 -0.6 1.84 -0.92 2.76 c-0.16 0.52 -0.36 1.08 -0.52 1.64 c-0.12 0.32 -0.24 0.6 -0.4 0.88 c-0.2 0.4 -0.52 0.64 -0.96 0.8 c-0.28 0.12 -0.6 0.2 -0.92 0.2 l-2.52 0 c-0.2 0 -0.4 -0.04 -0.56 -0.08 c-0.68 -0.12 -1.12 -0.48 -1.44 -1.08 c-0.16 -0.32 -0.32 -0.68 -0.44 -1.04 c-0.28 -0.84 -0.56 -1.64 -0.84 -2.48 c-0.28 -0.92 -0.6 -1.84 -1 -2.72 c-0.08 -0.16 -0.16 -0.36 -0.28 -0.52 c-0.08 -0.12 -0.2 -0.24 -0.32 -0.36 c-0.2 -0.16 -0.56 -0.08 -0.68 0.16 c-0.04 0.08 -0.08 0.2 -0.12 0.32 c-0.12 0.4 -0.16 0.76 -0.16 1.16 c-0.04 0.72 -0.04 1.44 -0.04 2.12 c0 1.72 0 3.44 -0.04 5.12 c0 0.48 -0.04 0.92 -0.08 1.36 c0 0.2 -0.04 0.4 -0.08 0.56 c-0.16 0.48 -0.44 0.8 -0.92 0.92 c-0.28 0.12 -0.6 0.16 -0.92 0.2 c-1 0.04 -2 0.04 -3 0 z  M163.071 40.56 c-1.12 -0.12 -2.24 -0.16 -3.36 -0.4 c-1.4 -0.28 -2.72 -0.76 -3.96 -1.52 c-1.76 -1.04 -3.08 -2.48 -4.04 -4.32 c-0.64 -1.16 -1.04 -2.4 -1.28 -3.72 c-0.32 -1.48 -0.48 -3 -0.44 -4.44 c-0.04 -1.48 0.12 -2.88 0.4 -4.28 c0.4 -1.96 1.12 -3.76 2.24 -5.4 c0.88 -1.28 1.96 -2.32 3.24 -3.12 c1.24 -0.8 2.6 -1.32 4.04 -1.6 c1.08 -0.24 2.16 -0.36 3.24 -0.32 c0.24 0.04 0.48 0.04 0.68 0.04 c1.52 0.2 3 0.48 4.44 0.96 c0.24 0.08 0.48 0.2 0.72 0.28 s0.44 0.24 0.64 0.44 c0.32 0.32 0.48 0.68 0.4 1.12 c-0.04 0.28 -0.08 0.6 -0.2 0.84 c-0.24 0.68 -0.52 1.32 -0.76 2 c-0.04 0.04 -0.04 0.12 -0.08 0.16 c-0.44 0.8 -0.96 1 -1.76 0.84 c-0.44 -0.08 -0.88 -0.24 -1.28 -0.4 c-0.76 -0.28 -1.56 -0.48 -2.36 -0.6 c-0.52 -0.08 -1.08 -0.04 -1.6 0.08 c-1.12 0.28 -1.96 0.96 -2.6 1.92 c-0.52 0.8 -0.84 1.72 -1.04 2.68 c-0.12 0.48 -0.16 1 -0.24 1.52 c-0.08 0.88 -0.2 1.72 -0.16 2.6 c0.08 1.52 0.2 3.04 0.64 4.48 c0.2 0.72 0.44 1.4 0.8 2.08 c0.36 0.56 0.8 1.08 1.32 1.52 c0.64 0.48 1.36 0.76 2.16 0.84 c0.8 0.04 1.6 0.04 2.4 -0.16 c0.48 -0.16 0.96 -0.28 1.48 -0.44 c0.28 -0.08 0.52 -0.2 0.8 -0.24 c0.2 -0.08 0.4 -0.08 0.6 -0.08 c0.32 0 0.6 0.12 0.88 0.36 c0.16 0.16 0.32 0.36 0.44 0.6 c0.36 0.76 0.64 1.56 0.88 2.36 c0.12 0.28 0.16 0.6 0.12 0.92 c0 0.32 -0.12 0.56 -0.36 0.8 c-0.16 0.16 -0.32 0.28 -0.52 0.36 c-0.32 0.12 -0.6 0.28 -0.92 0.36 c-1.64 0.44 -3.32 0.76 -5.04 0.88 l-0.56 0 z"></path></g><g id="SvgjsG2884" featureKey="inlineSymbolFeature-0" transform="matrix(0.3921184278439292,0,0,0.3921184278439292,208.9362784868255,-1.6053322288138643)" fill="#0dceda"><path xmlns="http://www.w3.org/2000/svg" d="M83.764,69.013c0,3.451-0.812,6.854-2.42,10.239c-1.607,3.366-3.857,6.226-6.752,8.562  c-3.164,2.537-6.869,4.517-11.086,5.938c-4.229,1.439-9.305,2.151-15.264,2.151c-3.92,0-7.68-0.979-11.342-2.312  c-2.011-0.733-4.082-1.39-5.962-2.43c-1.132-0.626-2.191-1.398-3.251-2.141c-2.992-2.095-5.667-4.637-7.995-7.447  c-0.79-0.955-1.524-1.95-2.205-2.983c-0.355-0.537-0.696-1.084-1.028-1.635c-0.225-0.371-0.995-1.26-0.995-1.684v-1.202h0.828  c4.485,3.725,9.662,6.603,15.536,8.614c5.872,2.031,11.373,3.047,16.533,3.047c7.293,0,12.981-1.37,17.042-4.113  c4.061-2.741,6.107-6.378,6.107-10.948c0-3.926-0.963-6.82-2.893-8.682c-1.928-1.861-4.838-3.317-8.766-4.35  c-2.979-0.795-6.209-1.437-9.679-1.963c-3.47-0.507-7.142-1.167-11.035-1.964c-7.852-1.657-13.672-4.5-17.463-8.526  c-3.791-4.029-5.67-9.275-5.67-15.74c0-7.412,3.132-13.487,9.394-18.243c6.26-4.737,14.214-7.107,23.86-7.107  c3.615,0,7.23,0.2,10.814,0.663c2.973,0.382,6.145,0.832,8.932,1.986c3.834,1.589,6.51,5.1,6.162,9.366  c-0.016,0.203-0.031,0.407-0.066,0.61l-0.627,4.111l-0.625,4.08c0.66,0.854,1.316,1.711,1.98,2.562  c0.521,0.667,1.047,1.334,1.564,2.005c0.438,0.569,0.854,1.524,1.51,1.873c1.002,0.531,2.688,0.323,3.795,0.481  c0.475,0.068,0.795,0.491,0.729,0.948c-0.051,0.474-0.475,0.795-0.949,0.745l-0.846-0.103c-0.779-0.155-1.699-0.306-2.498-0.308  c-0.316,1.041-0.346,2.24-0.461,3.321c-0.053,0.473-0.475,0.794-0.949,0.728c-0.459-0.052-0.795-0.475-0.729-0.948  c0.135-1.041,0.771-2.909,0.426-3.908c-0.275-0.79-1.07-1.397-1.58-2.036c-0.566-0.716-1.113-1.453-1.67-2.179  c-0.307-0.407-1.564-2.63-2.084-2.708c0,0-7.256-1.1-7.258-1.1c-2.154-0.327-3.941-1.38-5.406-2.973  c-1.473-1.602-1.879-3.546-2.197-5.628c-0.189-1.263-1.723-1.135-2.688-1.239c-1.777-0.194-3.561-0.178-5.346-0.178  c-6.297,0-11.374,1.321-15.198,3.943c-3.825,2.606-5.736,5.974-5.736,10.103c0,3.689,0.948,6.583,2.86,8.683  c1.895,2.115,5.246,3.723,10.052,4.823c2.538,0.559,6.143,1.234,10.813,2.031c4.688,0.794,8.648,1.606,11.914,2.436  c6.584,1.744,11.541,4.383,14.857,7.903C82.088,57.725,83.764,62.666,83.764,69.013z"></path><path xmlns="http://www.w3.org/2000/svg" d="M83.764,69.013c0,3.451-0.812,6.854-2.42,10.239c-1.607,3.366-3.857,6.226-6.752,8.562  c-3.164,2.537-6.869,4.517-11.086,5.938c-4.229,1.439-9.305,2.151-15.264,2.151c-3.92,0-7.68-0.979-11.342-2.312  c-2.011-0.733-4.082-1.39-5.962-2.43c-1.132-0.626-2.191-1.398-3.251-2.141c-2.992-2.095-5.667-4.637-7.995-7.447  c-0.79-0.955-1.524-1.95-2.205-2.983c-0.355-0.537-0.696-1.084-1.028-1.635c-0.225-0.371-0.995-1.26-0.995-1.684v-1.202h0.828  c4.485,3.725,9.662,6.603,15.536,8.614c5.872,2.031,11.373,3.047,16.533,3.047c7.293,0,12.981-1.37,17.042-4.113  c4.061-2.741,6.107-6.378,6.107-10.948c0-3.926-0.963-6.82-2.893-8.682c-1.928-1.861-4.838-3.317-8.766-4.35  c-2.979-0.795-6.209-1.437-9.679-1.963c-3.47-0.507-7.142-1.167-11.035-1.964c-7.852-1.657-13.672-4.5-17.463-8.526  c-3.791-4.029-5.67-9.275-5.67-15.74c0-7.412,3.132-13.487,9.394-18.243c6.26-4.737,14.214-7.107,23.86-7.107  c3.615,0,7.23,0.2,10.814,0.663c2.973,0.382,6.145,0.832,8.932,1.986c3.834,1.589,6.51,5.1,6.162,9.366  c-0.016,0.203-0.031,0.407-0.066,0.61l-0.627,4.111l-0.625,4.08c0.66,0.854,1.316,1.711,1.98,2.562  c0.521,0.667,1.047,1.334,1.564,2.005c0.438,0.569,0.854,1.524,1.51,1.873c1.002,0.531,2.688,0.323,3.795,0.481  c0.475,0.068,0.795,0.491,0.729,0.948c-0.051,0.474-0.475,0.795-0.949,0.745l-0.846-0.103c-0.779-0.155-1.699-0.306-2.498-0.308  c-0.316,1.041-0.346,2.24-0.461,3.321c-0.053,0.473-0.475,0.794-0.949,0.728c-0.459-0.052-0.795-0.475-0.729-0.948  c0.135-1.041,0.771-2.909,0.426-3.908c-0.275-0.79-1.07-1.397-1.58-2.036c-0.566-0.716-1.113-1.453-1.67-2.179  c-0.307-0.407-1.564-2.63-2.084-2.708c0,0-7.256-1.1-7.258-1.1c-2.154-0.327-3.941-1.38-5.406-2.973  c-1.473-1.602-1.879-3.546-2.197-5.628c-0.189-1.263-1.723-1.135-2.688-1.239c-1.777-0.194-3.561-0.178-5.346-0.178  c-6.297,0-11.374,1.321-15.198,3.943c-3.825,2.606-5.736,5.974-5.736,10.103c0,3.689,0.948,6.583,2.86,8.683  c1.895,2.115,5.246,3.723,10.052,4.823c2.538,0.559,6.143,1.234,10.813,2.031c4.688,0.794,8.648,1.606,11.914,2.436  c6.584,1.744,11.541,4.383,14.857,7.903C82.088,57.725,83.764,62.666,83.764,69.013z"></path></g><g id="SvgjsG2885" featureKey="nameRightFeature-0" transform="matrix(1.236273012805532,0,0,1.236273012805532,245.17693557056353,-14.143316448280597)" fill="#0dceda"><path d="M9.0312 40.5564 c-0.9032 0.028008 -1.7963 -0.10961 -2.6867 -0.2384 c-0.954 -0.1384 -1.9 -0.33719 -2.848 -0.5172 c-0.38 -0.071992 -0.7516 -0.17801 -1.106 -0.33602 c-0.20762 -0.092812 -0.39363 -0.21562 -0.55524 -0.37801 c-0.2132 -0.21442 -0.33442 -0.4676 -0.35363 -0.7708 c-0.018398 -0.29121 -0.0032031 -0.5792 0.078788 -0.86044 c0.2168 -0.7432 0.488 -1.4652 0.8468 -2.152 c0.05922 -0.1132 0.13203 -0.22199 0.21324 -0.32078 c0.30121 -0.36719 0.6868 -0.57116 1.1672 -0.5904 c0.35762 -0.013984 0.70524 0.042812 1.0516 0.12121 c0.502 0.1132 1.002 0.2368 1.5072 0.3352 c0.4732 0.092384 0.9508 0.16558 1.4284 0.23277 c0.8376 0.1184 1.6692 0.0584 2.494 -0.1184 c0.4104 -0.0884 0.8032 -0.22879 1.1824 -0.41116 c0.4744 -0.22762 0.8612 -0.5628 1.1824 -0.97244 c0.58 -0.74 0.5664 -1.7736 -0.033594 -2.4968 c-0.33039 -0.39801 -0.718 -0.73404 -1.1596 -1.01 c-0.602 -0.3768 -1.2412 -0.6788 -1.8816 -0.9808 c-0.6984 -0.32922 -1.3972 -0.6576 -2.0932 -0.9912 c-0.6684 -0.32039 -1.3016 -0.7024 -1.9268 -1.0996 c-0.7652 -0.4868 -1.4576 -1.0568 -2.0756 -1.7192 c-1.2596 -1.3504 -1.9228 -2.9412 -1.9636 -4.7952 c-0.028789 -1.3156 0.27281 -2.5548 0.8152 -3.7392 c0.5052 -1.1028 1.2656 -2.0116 2.21 -2.7648 c1.176 -0.938 2.5192 -1.5428 3.9604 -1.938 c0.7768 -0.2132 1.5656 -0.37039 2.3688 -0.4476 c0.608 -0.058008 1.2116 -0.1552 1.826 -0.1568 c1.2312 -0.0032031 2.4352 0.19801 3.6296 0.4664 c0.5016 0.11238 0.9968 0.25797 1.4888 0.40956 c0.30641 0.094412 0.6028 0.22281 0.9 0.3452 c0.11801 0.0484 0.23039 0.1152 0.33758 0.18558 c0.6928 0.4528 0.9276 1.0352 0.686 1.8268 c-0.1684 0.5528 -0.3916 1.0892 -0.5984 1.63 c-0.045196 0.11879 -0.11598 0.23 -0.18719 0.33641 c-0.3732 0.5556 -0.88244 0.83956 -1.5616 0.7324 c-0.34879 -0.054804 -0.6948 -0.13281 -1.0368 -0.22121 c-0.7176 -0.18558 -1.4404 -0.33879 -2.1756 -0.434 c-0.7408 -0.096016 -1.4776 -0.084412 -2.2056 0.0916 c-0.24961 0.060392 -0.4948 0.14039 -0.7372 0.22598 c-0.4672 0.16442 -0.84436 0.4584 -1.1616 0.8348 c-0.518 0.616 -0.62084 1.5592 -0.23043 2.264 c0.092384 0.1668 0.21476 0.32039 0.34195 0.464 c0.4108 0.4624 0.8988 0.8272 1.4552 1.0972 c0.8968 0.4356 1.7924 0.8748 2.6948 1.2996 c1.2244 0.576 2.4148 1.212 3.5384 1.968 c0.8356 0.562 1.56 1.254 2.178 2.0368 c0.858 1.0876 1.3096 2.3476 1.3836 3.7416 c0.063984 1.21 -0.13203 2.3716 -0.57324 3.496 c-0.3448 0.8788 -0.828 1.6696 -1.4892 2.3476 c-0.15762 0.16121 -0.31641 0.32043 -0.4736 0.48204 c-1.0036 1.0324 -2.1956 1.7632 -3.532 2.2936 c-1.4796 0.5872 -3.0092 0.9236 -4.5864 1.0828 c-0.5764 0.0584 -1.1508 0.13039 -1.734 0.1132 z"></path></g>
			</g>
		</svg>
	